<svg xmlns="http://www.w3.org/2000/svg" fill="#9C9C9C" width="20" height="20" viewBox="0 0 20 20" aria-labelledby="icon-svg-title- icon-svg-desc-" role="img" class="sc-rbbb40-0 iRDDBk"><title>copy</title><path d="M18.52 6.56c-0.040-0.080-0.1-0.16-0.16-0.22l-5.72-5.72c-0.060-0.060-0.16-0.12-0.26-0.14v0c-0.060-0.040-0.14-0.060-0.24-0.060v0h-4.28c-1.18 0-2.14 0.96-2.14 2.14v0 12.14c0 1.18 0.96 2.14 2.14 2.14v0h8.56c1.2 0 2.16-0.96 2.16-2.14v0-7.86c0 0 0 0 0 0 0-0.1-0.020-0.2-0.060-0.28v0zM12.86 2.86l3.28 3.26h-3.040c-0.14 0-0.24-0.1-0.24-0.22v0zM16.42 15.42h-8.56c-0.4 0-0.72-0.32-0.72-0.72v-12.14c0-0.4 0.32-0.72 0.72-0.72h3.56v4.060c0.020 0.92 0.76 1.66 1.68 1.66h4.040v7.14c0 0.4-0.32 0.72-0.7 0.72h-0.020zM12.86 18.28c0 0.38-0.32 0.7-0.72 0.7h-8.56c-0.4 0-0.72-0.32-0.72-0.7v-12.16c0-0.38 0.32-0.7 0.72-0.7h1.18v-1.44h-1.18c-1.2 0-2.16 0.96-2.16 2.14v0 12.16c0 1.18 0.96 2.14 2.16 2.14v0h8.56c1.18 0 2.14-0.96 2.14-2.14v0-0.48h-1.42z"></path></svg>