<svg xmlns="http://www.w3.org/2000/svg" fill="#EF4F5F" width="20" height="20" viewBox="0 0 20 20" aria-labelledby="icon-svg-title- icon-svg-desc-" role="img" class="sc-rbbb40-0 iRDDBk"><title>direction</title><path d="M19.2 8.44l-7.22-7.22c-0.52-0.48-1.2-0.8-1.98-0.8s-1.46 0.32-1.98 0.8v0l-7.2 7.22c-0.52 0.5-0.82 1.2-0.82 1.98s0.3 1.46 0.82 1.98l7.2 7.2c0.5 0.52 1.2 0.82 1.98 0.82s1.48-0.3 1.98-0.82l7.22-7.2c0.5-0.52 0.8-1.22 0.8-1.98s-0.3-1.48-0.8-1.98v0zM14.54 9.64l-2.34 2.32c-0.040 0.040-0.080 0.060-0.12 0.060-0.1 0-0.18-0.080-0.18-0.18 0 0 0 0 0 0v0-1.66h-3.56c-0.4 0-0.72 0.32-0.72 0.72v2.38c0 0.26-0.22 0.46-0.48 0.46v0h-0.48c-0.26 0-0.46-0.2-0.46-0.46v0-2.38c0-1.2 0.96-2.16 2.14-2.16v0h3.56v-1.66c0 0 0 0 0 0 0-0.1 0.080-0.18 0.18-0.18 0.040 0 0.080 0.020 0.12 0.060v0l2.34 2.34c0.040 0.040 0.080 0.1 0.080 0.16s-0.040 0.14-0.080 0.18v0z"></path></svg>