<svg xmlns="http://www.w3.org/2000/svg" fill="#828282" width="14" height="14" viewBox="0 0 20 20" aria-labelledby="icon-svg-title- icon-svg-desc-" role="img" class="sc-rbbb40-0 kyPUnV"><title>time</title><path d="M14.76 9.040h-4.22l-2.58-4.28c-0.147-0.354-0.489-0.598-0.889-0.598-0.53 0-0.96 0.43-0.96 0.96 0 0.227 0.079 0.436 0.211 0.6l-0.001-0.002 2.86 4.76c0.172 0.278 0.474 0.46 0.82 0.46 0 0 0 0 0.001 0h4.76c0.467-0.070 0.822-0.469 0.822-0.95s-0.354-0.88-0.817-0.949l-0.005-0.001zM10 0c-5.523 0-10 4.477-10 10s4.477 10 10 10c5.523 0 10-4.477 10-10v0c0-5.523-4.477-10-10-10v0zM10 18.58c-4.739 0-8.58-3.841-8.58-8.58s3.841-8.58 8.58-8.58c4.739 0 8.58 3.841 8.58 8.58v0c0 4.739-3.841 8.58-8.58 8.58v0z"></path></svg>